<?xml version="1.0" encoding="UTF-8"?>
<svg version="1.1" xmlns="http://www.w3.org/2000/svg" width="320" height="65">
<path d="M0 0 C105.6 0 211.2 0 320 0 C320 21.45 320 42.9 320 65 C214.4 65 108.8 65 0 65 C0 43.55 0 22.1 0 0 Z " fill="#FCFCFE" transform="translate(0,0)"/>
<path d="M0 0 C3.856875 -0.061875 7.71375 -0.12375 11.6875 -0.1875 C13.4986731 -0.22846802 13.4986731 -0.22846802 15.34643555 -0.27026367 C16.308479 -0.27775635 17.27052246 -0.28524902 18.26171875 -0.29296875 C19.24100342 -0.3086792 20.22028809 -0.32438965 21.22924805 -0.34057617 C25.60932298 0.19781527 28.20571667 2.22718378 31.3125 5.25 C33.51655907 8.84179997 33.58324027 10.8444131 33 15 C31.25 18.375 31.25 18.375 29 21 C26.859375 21.6640625 26.859375 21.6640625 25 22 C25.7425 22.9075 26.485 23.815 27.25 24.75 C31.44360946 30.59237899 34 37.82088568 34 45 C31.03 45 28.06 45 25 45 C24.68546875 43.95199219 24.3709375 42.90398438 24.046875 41.82421875 C23.61530937 40.4450851 23.18297737 39.06619109 22.75 37.6875 C22.54503906 36.99720703 22.34007812 36.30691406 22.12890625 35.59570312 C21.20175304 32.68781351 20.32708017 30.36170352 18.265625 28.08203125 C15.35079757 26.55128767 15.35079757 26.55128767 9 26 C9 32.27 9 38.54 9 45 C6.03 45 3.06 45 0 45 C0 30.15 0 15.3 0 0 Z " fill="#554AE5" transform="translate(114,11)"/>
<path d="M0 0 C0.495 0.33 0.99 0.66 1.5 1 C1.83 0.34 2.16 -0.32 2.5 -1 C5.14 -1 7.78 -1 10.5 -1 C10.5 8.9 10.5 18.8 10.5 29 C7.86 29 5.22 29 2.5 29 C2.17 28.34 1.84 27.68 1.5 27 C0.51 27.66 -0.48 28.32 -1.5 29 C-7.04039834 29.45413101 -10.81144236 29.30330197 -15.5 26 C-19.44834481 21.01261708 -20.13811148 16.90933691 -19.88671875 10.58984375 C-19.1669071 5.76928692 -16.89160694 3.15967245 -13.25 0.125 C-8.80313512 -1.694172 -4.5435132 -1.81740528 0 0 Z " fill="#5B4FE6" transform="translate(286.5,27)"/>
<path d="M0 0 C4.02443253 2.24439506 6.20282311 4.71814622 8.25 8.8125 C8.25 12.1125 8.25 15.4125 8.25 18.8125 C0.66 18.8125 -6.93 18.8125 -14.75 18.8125 C-12.73848737 25.58739892 -12.73848737 25.58739892 -9.75 26.8125 C-5.40556172 27.23324523 -5.40556172 27.23324523 -1.6875 25.25 C0.25 23.8125 0.25 23.8125 2.875 24.0625 C5.25 24.8125 5.25 24.8125 7.25 25.8125 C6.68447641 29.09253681 5.92167078 30.78571527 3.25 32.8125 C-1.66444263 35.03570024 -6.44215534 35.43190737 -11.75 34.8125 C-16.99229907 32.83427393 -20.56674108 30.29734373 -23 25.1875 C-24.62886277 17.85761752 -24.55713495 11.37652578 -20.75 4.8125 C-18.3125 2.5 -18.3125 2.5 -15.75 0.8125 C-15.151875 0.4 -14.55375 -0.0125 -13.9375 -0.4375 C-9.02601441 -2.12143792 -4.81199892 -1.52379966 0 0 Z " fill="#564BE6" transform="translate(176.75,22.1875)"/>
<path d="M0 0 C2.97 0 5.94 0 9 0 C9.98482876 2.87317015 10.9629993 5.74832745 11.9375 8.625 C12.21529297 9.43324219 12.49308594 10.24148437 12.77929688 11.07421875 C14.22953216 15.37250646 15.42203982 19.47874188 16 24 C16.66 24 17.32 24 18 24 C18.16435547 23.18208984 18.16435547 23.18208984 18.33203125 22.34765625 C19.98856653 14.46901286 22.16683893 7.1187277 26 0 C28.64 0 31.28 0 34 0 C32.99630305 6.77120925 31.0486752 12.62209228 28.30859375 18.8828125 C26.23594563 23.82004593 24.61885878 28.89923824 23 34 C19.37 34 15.74 34 12 34 C8.58602324 26.9651388 5.78211808 19.87160048 3.1875 12.5 C2.71654907 11.17307129 2.71654907 11.17307129 2.23608398 9.81933594 C1.80017944 8.5629834 1.80017944 8.5629834 1.35546875 7.28125 C1.09403076 6.52908203 0.83259277 5.77691406 0.56323242 5.00195312 C0 3 0 3 0 0 Z " fill="#564AE5" transform="translate(207,22)"/>
<path d="M0 0 C2.97 0 5.94 0 9 0 C9 11.22 9 22.44 9 34 C6.03 34 3.06 34 0 34 C0 22.78 0 11.56 0 0 Z " fill="#584DE6" transform="translate(192,22)"/>
<path d="M0 0 C0.90593789 3.93347391 1.0235335 7.07645492 0 11 C-4.50874782 17.22531357 -11.34489318 22.29018527 -18 26 C-18.13609913 24.27305325 -18.23249228 22.54295278 -18.3125 20.8125 C-18.37050781 19.84957031 -18.42851562 18.88664062 -18.48828125 17.89453125 C-17.8128738 13.89071588 -16.02959964 12.63733743 -13 10 C-12.06800781 9.11699219 -11.13601562 8.23398437 -10.17578125 7.32421875 C-9.23089844 6.45410156 -8.28601562 5.58398438 -7.3125 4.6875 C-5.88357422 3.36298828 -5.88357422 3.36298828 -4.42578125 2.01171875 C-2 0 -2 0 0 0 Z " fill="#5C51E6" transform="translate(38,38)"/>
<path d="M0 0 C3.67127899 1.60564211 6.48705241 3.889272 9.5625 6.4375 C10.51253906 7.21996094 11.46257813 8.00242187 12.44140625 8.80859375 C13.28574219 9.53175781 14.13007812 10.25492188 15 11 C15.60328125 11.47179688 16.2065625 11.94359375 16.828125 12.4296875 C18.59954005 14.80338366 18.29011118 16.78018323 18.1875 19.6875 C18.16042969 20.68136719 18.13335937 21.67523437 18.10546875 22.69921875 C18.07066406 23.45847656 18.03585938 24.21773437 18 25 C13.83583715 23.27264356 10.696362 20.40045314 7.3125 17.5 C6.42208008 16.75169922 6.42208008 16.75169922 5.51367188 15.98828125 C1.12948754 12.25897507 1.12948754 12.25897507 0 10 C-0.06996014 8.29297265 -0.08440154 6.58331997 -0.0625 4.875 C-0.05347656 3.96492187 -0.04445313 3.05484375 -0.03515625 2.1171875 C-0.02355469 1.41851562 -0.01195313 0.71984375 0 0 Z " fill="#5C51E6" transform="translate(20,5)"/>
<path d="M0 0 C6.23861323 2.74869593 12.8709631 7.4929532 17 13 C18.05662381 17.23136447 17.8681597 20.74824351 17 25 C15.10327246 23.63559654 13.2326235 22.24683896 11.37890625 20.82421875 C9.76488979 19.58654111 8.12543964 18.38147426 6.46484375 17.20703125 C0.27807638 12.45175046 0.27807638 12.45175046 -0.56640625 8.04296875 C-0.56288928 5.30324664 -0.40319918 2.7079056 0 0 Z " fill="#584DE6" transform="translate(42,39)"/>
<path d="M0 0 C0.64544646 3.83682065 0.8125073 7.17875355 0 11 C-2.87474308 14.63586553 -6.28486909 17.26110787 -10 20 C-11.33998047 21.11568359 -11.33998047 21.11568359 -12.70703125 22.25390625 C-15 24 -15 24 -17 24 C-17.64544646 20.16317935 -17.8125073 16.82124645 -17 13 C-14.12525692 9.36413447 -10.71513091 6.73889213 -7 4 C-5.66001953 2.88431641 -5.66001953 2.88431641 -4.29296875 1.74609375 C-2 0 -2 0 0 0 Z " fill="#574BE5" transform="translate(59,5)"/>
<path d="M0 0 C-1.07631714 1.11219438 -2.16294993 2.21502278 -3.27734375 3.2890625 C-4.58849208 4.59129146 -5.84200446 5.95183112 -7.06640625 7.3359375 C-10.7839569 11.21884873 -13.32493338 13.74256505 -18.76171875 14.578125 C-22.21863496 14.56414354 -25.56772017 14.4005975 -29 14 C-20.6654947 3.18818783 -13.95042362 -1.64961214 0 0 Z " fill="#594EE6" transform="translate(32,36)"/>
<path d="M0 0 C2.31 0 4.62 0 7 0 C7 9.24 7 18.48 7 28 C4.69 28 2.38 28 0 28 C0 18.76 0 9.52 0 0 Z " fill="#4F43E4" transform="translate(304,27)"/>
<path d="M0 0 C5.13612748 -0.92143151 10.28524873 -1.57565722 14.97363281 1.14550781 C25.43584364 8.87168728 25.43584364 8.87168728 28 14 C16.791559 15.64147287 16.791559 15.64147287 12.19140625 12.93652344 C8.42646337 9.984757 5.24993985 6.49532121 2 3 C1.34 2.67 0.68 2.34 0 2 C0 1.34 0 0.68 0 0 Z " fill="#594DE6" transform="translate(48,36)"/>
<path d="M0 0 C0 0.66 0 1.32 0 2 C-1.50903877 3.35373964 -3.08412698 4.63443401 -4.6875 5.875 C-5.99267578 6.89207031 -5.99267578 6.89207031 -7.32421875 7.9296875 C-8.20722656 8.61289062 -9.09023437 9.29609375 -10 10 C-10.78375 10.73992188 -11.5675 11.47984375 -12.375 12.2421875 C-15.8520479 14.57056779 -18.17174118 14.40479472 -22.3125 14.25 C-23.56675781 14.21390625 -24.82101563 14.1778125 -26.11328125 14.140625 C-27.06589844 14.09421875 -28.01851562 14.0478125 -29 14 C-27.33779162 12.32888694 -25.6701425 10.66318357 -24 9 C-23.195625 8.18917969 -22.39125 7.37835937 -21.5625 6.54296875 C-14.50440872 0.0551196 -9.46998182 -1.21950481 0 0 Z " fill="#594EE6" transform="translate(76,18)"/>
<path d="M0 0 C5.0125986 -0.81218864 10.24014958 -1.54405406 14.84326172 1.03125 C18.9086671 3.98072629 22.46757452 7.44182798 26 11 C26.92425781 11.91845703 26.92425781 11.91845703 27.8671875 12.85546875 C28.42792969 13.42201172 28.42792969 13.42201172 29 14 C22.46643307 14.96974981 16.77150485 15.5823153 11.24609375 11.65625 C6.97882277 8.19906498 3.0598206 4.58973091 0 0 Z " fill="#584DE6" transform="translate(3,18)"/>
<path d="M0 0 C3.4375 0.9375 3.4375 0.9375 5.375 2 C7.13566113 5.21061736 7.19103146 8.43745202 6.4375 11.9375 C4.0191209 14.70136182 2.47092666 15.73585577 -1.125 16.4375 C-4.52561101 15.73993877 -5.61695623 14.81978706 -7.5625 11.9375 C-8.38693434 7.87362165 -8.16831932 4.93104368 -6 1.375 C-3.5625 -0.0625 -3.5625 -0.0625 0 0 Z " fill="#F8F8FE" transform="translate(282.5625,33.0625)"/>
<path d="M0 0 C10.34909307 -0.36961047 10.34909307 -0.36961047 13.33203125 1.32421875 C15 3 15 3 15.4375 6 C15 9 15 9 13.859375 10.67578125 C10.02080389 13.40955353 4.47440686 12.14433571 0 12 C0 8.04 0 4.08 0 0 Z " fill="#F7F7FD" transform="translate(123,18)"/>
<path d="M0 0 C2.375 1.1875 2.375 1.1875 4 3 C4 4.65 4 6.3 4 8 C-0.62 8 -5.24 8 -10 8 C-9 3 -9 3 -7.8125 1.1875 C-5.09937351 -0.59006563 -3.17290804 -0.38851935 0 0 Z " fill="#EBE9FC" transform="translate(172,28)"/>
<path d="M0 0 C1.875 1.1875 1.875 1.1875 3 3 C2.75546876 6.34192692 2.39456443 7.60543557 0 10 C-2.83386167 10.3633156 -4.40522151 10.3568671 -6.875 8.875 C-8 7 -8 7 -7.8125 3.875 C-7.544375 2.92625 -7.27625 1.9775 -7 1 C-4.45132831 -0.27433584 -2.82594567 -0.27570202 0 0 Z " fill="#5A4FE6" transform="translate(199,8)"/>
<path d="M0 0 C2.625 0.25 2.625 0.25 4.5 1.4375 C5.625 3.25 5.625 3.25 5.4375 5.8125 C4.625 8.25 4.625 8.25 2.625 10.25 C0.125 10.5625 0.125 10.5625 -2.375 10.25 C-4.375 7.25 -4.375 7.25 -4.0625 4.125 C-3.15551643 0.33215962 -3.15551643 0.33215962 0 0 Z " fill="#5D52E6" transform="translate(256.375,45.75)"/>
<path d="M0 0 C2.5625 0.1875 2.5625 0.1875 4.5625 2.1875 C3.99431818 7.75568182 3.99431818 7.75568182 2.5625 9.1875 C0.125 9.4375 0.125 9.4375 -2.4375 9.1875 C-4.4375 6.1875 -4.4375 6.1875 -4.125 3.5625 C-3.16420807 0.24340062 -3.16420807 0.24340062 0 0 Z " fill="#5F54E7" transform="translate(307.4375,12.8125)"/>
</svg>
